<svg width="270" height="270" viewBox="0 0 270 270" fill="none" xmlns="http://www.w3.org/2000/svg">
<rect width="270" height="270" fill="#FAFAFA"/>
<path fill-rule="evenodd" clip-rule="evenodd" d="M157.212 59.1655C160.087 79.2905 150.312 112.065 114.087 118.39C114.087 133.341 132.487 141.965 146.287 141.39C148.17 141.312 150.647 141.134 153.554 140.925C171.95 139.604 207.595 137.044 219.311 150.59C220.738 152.241 222.034 154.126 223.209 156.204C223.264 156.189 223.323 156.173 223.385 156.156C225.671 155.543 232.662 153.669 238.288 136.79C239.438 133.34 235.413 121.265 231.963 116.676C225.149 107.61 233.688 109.191 237.138 112.652C237.236 112.751 237.353 112.865 237.486 112.996C240.106 115.562 249.074 124.344 246.338 139.665C243.463 155.765 237.138 168.99 230.238 174.753C230.157 174.821 230.076 174.877 229.995 174.921C235.997 200.919 233.946 234.284 233.111 239.715C231.961 247.19 228.511 248.34 221.036 248.915C213.561 249.49 210.686 247.765 208.961 239.715C207.404 232.449 206.661 211.924 207.236 202.34L183.086 208.09C183.661 217.099 184.466 236.61 183.086 242.59C181.361 250.065 173.886 248.915 170.436 248.341C161.984 246.932 161.221 243.915 160.556 241.287C160.418 240.74 160.284 240.21 160.086 239.715C159.166 237.415 159.319 219.207 159.511 210.39C158.228 210.455 156.708 210.605 154.974 210.776L154.974 210.776L154.973 210.776C151.527 211.116 147.233 211.54 142.261 211.54C137.638 211.54 129.994 210.965 126.736 210.39C127.694 218.249 129.036 235.46 126.736 241.44C125.63 244.316 123.861 246.04 117.536 246.04C109.424 246.04 108.746 242.989 107.921 239.277C107.869 239.043 107.816 238.805 107.761 238.565C106.036 231.091 106.419 215.374 107.761 208.09L91.086 204.065C91.661 213.265 92.466 233.275 91.086 239.715C89.6135 246.587 84.789 246.336 80.547 246.115C79.8196 246.077 79.1093 246.04 78.436 246.04C78.2149 246.04 77.9941 246.042 77.7735 246.043C73.3675 246.069 69.0715 246.095 65.786 235.69C63.026 226.95 66.1693 160.365 68.086 128.165C53.9028 125.29 24.9616 113.33 22.6616 88.4905C19.7866 57.4405 33.5866 31.5655 75.5616 23.5155C117.537 15.4655 154.913 28.1155 157.212 59.1655ZM62.3363 86.7655C72.1808 86.7655 80.1613 79.5573 80.1613 70.6655C80.1613 61.7737 72.1808 54.5655 62.3363 54.5655C52.4919 54.5655 44.5113 61.7737 44.5113 70.6655C44.5113 79.5573 52.4919 86.7655 62.3363 86.7655ZM133.061 70.6655C133.061 79.5573 124.308 86.7655 113.511 86.7655C102.714 86.7655 93.9612 79.5573 93.9612 70.6655C93.9612 61.7737 102.714 54.5655 113.511 54.5655C124.308 54.5655 133.061 61.7737 133.061 70.6655Z" fill="#161616"/>
</svg>
